<svg xmlns="http://www.w3.org/2000/svg" viewBox="0 0 78 21" fill="#b8e04a">
  <!-- G - 5 wide x 7 tall -->
  <rect x="0" y="0" width="3" height="3"/>
  <rect x="3" y="0" width="3" height="3"/>
  <rect x="6" y="0" width="3" height="3"/>
  <rect x="9" y="0" width="3" height="3"/>
  <rect x="0" y="3" width="3" height="3"/>
  <rect x="0" y="6" width="3" height="3"/>
  <rect x="0" y="9" width="3" height="3"/>
  <rect x="0" y="12" width="3" height="3"/>
  <rect x="0" y="15" width="3" height="3"/>
  <rect x="0" y="18" width="3" height="3"/>
  <rect x="3" y="18" width="3" height="3"/>
  <rect x="6" y="18" width="3" height="3"/>
  <rect x="9" y="18" width="3" height="3"/>
  <rect x="12" y="18" width="3" height="3"/>
  <rect x="12" y="15" width="3" height="3"/>
  <rect x="12" y="12" width="3" height="3"/>
  <rect x="9" y="12" width="3" height="3"/>
  <rect x="12" y="9" width="3" height="3"/>

  <!-- e - smaller, 4 wide x 5 tall, offset down -->
  <rect x="19" y="6" width="2" height="2"/>
  <rect x="21" y="6" width="2" height="2"/>
  <rect x="23" y="6" width="2" height="2"/>
  <rect x="19" y="8" width="2" height="2"/>
  <rect x="25" y="8" width="2" height="2"/>
  <rect x="19" y="10" width="2" height="2"/>
  <rect x="21" y="10" width="2" height="2"/>
  <rect x="23" y="10" width="2" height="2"/>
  <rect x="25" y="10" width="2" height="2"/>
  <rect x="19" y="12" width="2" height="2"/>
  <rect x="19" y="14" width="2" height="2"/>
  <rect x="19" y="16" width="2" height="2"/>
  <rect x="21" y="18" width="2" height="2"/>
  <rect x="23" y="18" width="2" height="2"/>
  <rect x="25" y="18" width="2" height="2"/>

  <!-- P - 5 wide x 7 tall -->
  <rect x="32" y="0" width="3" height="3"/>
  <rect x="35" y="0" width="3" height="3"/>
  <rect x="38" y="0" width="3" height="3"/>
  <rect x="41" y="0" width="3" height="3"/>
  <rect x="32" y="3" width="3" height="3"/>
  <rect x="44" y="3" width="3" height="3"/>
  <rect x="32" y="6" width="3" height="3"/>
  <rect x="44" y="6" width="3" height="3"/>
  <rect x="32" y="9" width="3" height="3"/>
  <rect x="35" y="9" width="3" height="3"/>
  <rect x="38" y="9" width="3" height="3"/>
  <rect x="41" y="9" width="3" height="3"/>
  <rect x="32" y="12" width="3" height="3"/>
  <rect x="32" y="15" width="3" height="3"/>
  <rect x="32" y="18" width="3" height="3"/>

  <!-- T - 5 wide x 7 tall -->
  <rect x="53" y="0" width="3" height="3"/>
  <rect x="56" y="0" width="3" height="3"/>
  <rect x="59" y="0" width="3" height="3"/>
  <rect x="62" y="0" width="3" height="3"/>
  <rect x="65" y="0" width="3" height="3"/>
  <rect x="59" y="3" width="3" height="3"/>
  <rect x="59" y="6" width="3" height="3"/>
  <rect x="59" y="9" width="3" height="3"/>
  <rect x="59" y="12" width="3" height="3"/>
  <rect x="59" y="15" width="3" height="3"/>
  <rect x="59" y="18" width="3" height="3"/>
</svg>
